<?xml version="1.0" standalone="no"?>
<!DOCTYPE svg PUBLIC "-//W3C//DTD SVG 20010904//EN"
 "http://www.w3.org/TR/2001/REC-SVG-20010904/DTD/svg10.dtd">
<svg version="1.0" xmlns="http://www.w3.org/2000/svg"
 width="1023.000000pt" height="882.000000pt" viewBox="0 0 1023.000000 882.000000"
 preserveAspectRatio="xMidYMid meet">
<metadata>
Created by potrace 1.16, written by Peter Selinger 2001-2019
</metadata>
<g transform="translate(0.000000,882.000000) scale(0.100000,-0.100000)"
fill="#000000" stroke="none">
<path d="M7595 7936 c-228 -75 -530 -246 -700 -395 -191 -169 -276 -272 -489
-595 -109 -165 -208 -320 -221 -346 -98 -194 -282 -701 -434 -1199 -115 -375
-126 -416 -216 -739 -42 -152 -155 -623 -155 -647 0 -2 -7 -6 -16 -9 -21 -8
-87 21 -79 34 13 21 -6 78 -34 109 -37 39 -103 44 -122 10 -11 -21 -11 -21
-29 -3 -24 25 -73 143 -95 229 -15 59 -17 96 -11 235 3 91 12 199 20 240 57
304 57 326 3 407 -39 57 -180 162 -219 163 -62 1 -34 -49 32 -57 76 -10 147
-58 192 -131 30 -48 28 -134 -5 -307 -14 -71 -31 -195 -37 -275 -15 -177 -2
-273 55 -404 44 -103 43 -120 -6 -124 -34 -3 -37 -1 -43 29 -3 17 -6 42 -6 54
0 32 -63 153 -105 203 -71 82 -260 197 -649 395 -226 116 -300 165 -345 234
-39 59 -47 95 -26 127 29 43 -3 90 -35 51 -9 -11 -9 -26 1 -67 35 -143 105
-207 370 -339 174 -87 440 -235 550 -306 156 -100 255 -277 220 -394 -7 -21
-14 -39 -18 -39 -9 0 -130 99 -333 274 -102 87 -304 251 -450 364 -146 114
-355 280 -465 371 -255 210 -309 248 -644 445 -402 237 -686 386 -900 472
-158 64 -470 116 -701 118 -233 1 -305 -29 -330 -141 -9 -44 -10 -72 0 -134
11 -71 16 -81 51 -114 22 -20 39 -40 39 -44 0 -5 47 -55 104 -112 94 -94 105
-109 115 -155 11 -54 57 -133 116 -199 19 -22 53 -71 75 -108 22 -38 53 -85
69 -105 15 -21 32 -48 36 -62 16 -56 71 -144 111 -179 29 -25 46 -50 54 -79 7
-27 35 -71 75 -120 36 -42 84 -102 107 -132 24 -30 76 -86 115 -125 64 -63 73
-76 73 -108 0 -20 16 -81 36 -134 42 -112 101 -190 265 -349 175 -171 210
-196 355 -253 73 -28 148 -51 168 -51 43 0 54 -18 37 -57 -10 -22 -10 -28 3
-35 14 -8 13 -13 -9 -42 -30 -40 -32 -87 -6 -148 16 -37 17 -53 9 -104 -14
-85 -3 -157 38 -254 32 -76 42 -89 94 -128 56 -41 58 -44 50 -74 -10 -34 -2
-58 36 -98 21 -23 22 -29 12 -62 -10 -33 -8 -43 16 -92 50 -102 205 -273 311
-342 56 -37 74 -55 75 -72 0 -21 64 -92 83 -92 4 0 7 -9 7 -20 0 -40 41 -100
99 -147 219 -178 393 -293 444 -293 10 0 35 -14 56 -31 37 -29 55 -36 92 -38
9 -1 22 -14 28 -29 8 -19 31 -38 69 -58 31 -16 69 -37 84 -47 26 -17 208 -47
292 -47 23 0 59 -9 82 -19 29 -13 55 -17 93 -13 42 4 61 0 90 -16 64 -36 133
-38 246 -7 55 15 106 31 112 37 18 15 58 145 84 276 l22 112 -21 23 c-13 14
-20 32 -18 50 2 15 -1 30 -6 33 -4 3 -5 10 -2 16 4 6 -2 18 -12 26 -16 13 -17
14 -1 9 18 -7 24 8 7 18 -5 3 -10 11 -10 16 0 6 5 7 12 3 7 -4 8 -3 4 4 -4 7
-14 12 -22 12 -11 0 -13 9 -8 39 4 23 2 41 -5 45 -7 5 -7 12 1 26 9 14 9 22
-1 33 -9 12 -9 16 1 20 8 4 5 8 -9 12 -19 6 -22 14 -21 57 1 27 -3 53 -8 56
-5 4 -10 22 -11 41 -1 19 -8 38 -14 41 -8 6 -8 9 0 15 8 4 9 11 2 18 -5 7 -9
14 -10 17 0 3 -2 12 -5 20 -10 31 -12 79 -3 73 18 -11 -6 42 -27 61 -12 10
-20 23 -18 29 2 6 -4 5 -13 -3 -14 -11 -14 -14 2 -27 10 -8 12 -12 5 -8 -9 5
-9 -3 3 -32 14 -38 15 -78 2 -100 -4 -7 1 -16 10 -22 17 -10 17 -10 1 -11 -22
0 -33 -55 -18 -94 6 -16 8 -31 5 -34 -3 -3 -5 1 -5 8 0 7 -3 11 -6 8 -3 -4 1
-19 9 -35 22 -44 31 -86 15 -77 -7 5 -5 -4 5 -19 15 -23 15 -27 2 -27 -20 0
-19 -16 1 -24 8 -3 13 -10 10 -15 -3 -5 3 -7 14 -4 14 4 20 0 20 -11 0 -9 -3
-15 -7 -15 -19 3 -21 -3 -13 -31 5 -16 5 -30 0 -30 -4 0 1 -17 11 -37 16 -32
17 -39 4 -53 -16 -18 -9 -64 9 -53 6 3 3 -2 -6 -13 -14 -16 -16 -27 -9 -52 9
-28 8 -31 -8 -23 -13 8 -17 5 -16 -12 0 -12 -4 -24 -10 -27 -5 -3 -15 27 -22
65 -7 39 -17 84 -23 100 -10 30 -10 29 -6 -7 7 -56 -11 -46 -23 12 -14 63 -14
80 -1 80 6 0 10 -11 10 -25 0 -14 5 -25 11 -25 6 0 8 8 5 18 -2 9 -7 43 -11
76 -4 32 -8 68 -10 80 -18 98 -25 158 -20 166 3 5 1 11 -5 15 -5 3 -10 18 -10
32 l0 25 20 -23 19 -24 -12 33 c-6 17 -17 32 -24 32 -7 0 -13 9 -13 20 0 11 6
20 13 20 9 0 9 2 0 8 -7 4 -14 28 -17 52 -5 39 -4 40 3 12 10 -37 39 -74 53
-66 12 8 -1 46 -21 61 -9 7 -11 13 -6 13 6 0 16 4 24 9 11 7 8 16 -13 47 -26
39 -30 38 -26 -5 1 -14 -2 -21 -9 -17 -14 9 -14 56 0 56 5 0 7 5 3 11 -3 6 5
4 19 -5 35 -24 43 3 11 38 -25 27 -44 34 -44 16 0 -5 6 -10 13 -10 8 0 9 -3 1
-8 -6 -4 -14 -14 -17 -22 -6 -17 -8 31 -12 415 -3 257 -9 410 -20 465 -4 24
-4 24 10 6 8 -11 15 -27 16 -35 1 -33 8 -54 19 -61 6 -4 10 -13 9 -21 -2 -8 2
-23 8 -34 18 -35 25 -93 11 -98 -9 -4 -7 -6 3 -6 21 -1 36 -34 40 -91 1 -8 6
-21 12 -27 6 -9 5 -13 -5 -13 -7 0 -14 -9 -14 -20 0 -22 12 -27 19 -7 4 7 6 6
6 -5 1 -9 -5 -19 -11 -21 -9 -4 -10 -8 -3 -14 6 -4 10 -18 9 -30 -1 -13 1 -23
5 -23 3 0 7 -11 7 -25 1 -14 -3 -25 -9 -25 -5 0 -3 -8 5 -17 8 -10 23 -58 33
-108 9 -49 20 -97 23 -105 3 -8 7 -24 8 -36 1 -12 9 -45 18 -75 8 -30 16 -72
17 -94 2 -22 6 -44 9 -50 10 -15 50 -177 50 -203 0 -13 4 -20 10 -17 6 3 10
-2 10 -12 0 -25 29 -101 31 -83 1 8 5 -5 9 -30 7 -45 16 420 13 660 0 69 -8
177 -17 240 -9 63 -19 130 -21 148 -3 18 -23 69 -46 115 l-40 82 42 -45 c173
-184 192 -210 238 -322 40 -97 52 -121 189 -392 85 -167 101 -186 156 -186 64
0 97 92 74 200 -6 30 -11 59 -9 64 3 11 -35 125 -62 188 -11 27 -18 50 -16 53
5 5 417 -200 643 -320 71 -37 125 -62 121 -55 -5 8 -3 11 6 8 8 -3 13 -11 12
-17 -2 -6 3 -11 10 -11 7 0 13 8 14 19 1 13 -9 22 -38 30 -22 7 -44 9 -49 6
-22 -14 4 25 27 40 23 16 26 15 59 -7 18 -13 34 -29 34 -35 0 -7 7 -13 15 -13
18 0 20 -16 3 -23 -7 -3 2 -6 21 -6 l33 -1 -23 -20 -24 -20 30 14 c52 24 100
10 90 -27 -2 -12 -2 -16 1 -9 7 16 27 16 21 0 -6 -18 25 -42 75 -61 120 -43
310 -97 368 -104 101 -13 153 -2 300 66 147 68 170 87 235 198 31 51 42 62 70
67 21 4 43 18 57 37 60 79 90 107 120 113 17 3 46 17 63 30 17 13 51 30 75 36
70 19 126 72 171 164 34 68 41 94 46 166 6 75 9 88 33 110 18 16 30 41 35 68
5 30 15 48 33 60 32 21 68 101 142 313 l58 166 -12 94 c-7 52 -20 109 -29 127
-13 24 -15 37 -7 52 16 30 40 169 40 231 0 161 -60 343 -135 412 -40 37 -47
49 -56 103 -10 56 -14 64 -58 96 -48 36 -71 82 -71 142 0 35 -62 102 -164 175
-96 69 -176 98 -299 107 -48 4 -90 11 -93 15 -3 5 19 24 48 43 68 43 194 175
240 251 20 33 46 93 58 134 20 66 22 81 12 140 -7 36 -14 117 -17 179 -7 134
-32 226 -81 298 -30 45 -35 62 -47 166 -10 84 -19 123 -34 144 -11 16 -27 52
-35 79 -33 107 -42 141 -43 165 -3 49 -36 183 -50 204 -8 11 -15 29 -15 39 0
10 -11 28 -24 40 -13 12 -28 39 -34 60 -6 21 -24 53 -41 73 -25 28 -31 44 -31
80 0 43 -18 93 -46 124 -17 20 -84 212 -84 243 0 27 -27 112 -63 201 -27 64
-93 147 -141 177 -44 27 -75 24 -221 -25z m-2 -518 c41 -20 33 -43 -25 -73
-56 -29 -107 -37 -150 -22 -31 10 -32 11 -19 36 9 16 45 35 116 59 41 14 47
14 78 0z m-329 -215 c3 -10 4 -27 1 -38 -2 -11 -4 -24 -4 -30 -1 -5 -16 -20
-35 -33 -30 -20 -37 -22 -57 -10 -38 22 -46 33 -46 63 0 46 24 63 94 64 31 1
43 -3 47 -16z m851 -763 c3 -5 11 -8 18 -6 7 1 9 1 5 -1 -4 -2 -4 -11 -1 -19
3 -8 -4 -17 -18 -23 -18 -7 -19 -10 -6 -10 21 -1 22 -27 2 -47 -8 -9 -15 -21
-15 -27 0 -7 7 -4 14 6 7 9 22 17 32 16 10 0 15 -2 9 -5 -5 -2 -9 -25 -7 -51
3 -36 -1 -53 -15 -68 -10 -11 -26 -32 -36 -47 -9 -15 -29 -31 -43 -34 -17 -4
-23 -11 -19 -21 3 -10 1 -13 -9 -10 -10 4 -13 1 -10 -7 3 -7 -2 -13 -11 -13
-8 0 -15 4 -15 9 0 5 -7 3 -15 -6 -8 -8 -15 -19 -15 -24 0 -14 -98 -54 -112
-46 -7 4 -8 3 -4 -4 4 -7 2 -12 -4 -12 -6 0 -30 -12 -53 -27 -38 -25 -327
-172 -417 -212 -19 -9 -43 -24 -53 -33 -10 -10 -28 -18 -42 -18 -13 0 -25 -4
-27 -8 -1 -5 -34 -24 -73 -42 -38 -18 -77 -39 -87 -47 -9 -8 -22 -16 -30 -17
-7 -1 -23 -8 -36 -14 -12 -7 -26 -11 -30 -8 -11 6 -58 -21 -52 -31 3 -4 -4 -9
-15 -12 -11 -2 -23 -8 -27 -14 -3 -6 -17 -11 -30 -13 -12 -1 -26 -3 -30 -3 -5
-1 -7 -7 -5 -13 1 -8 -8 -13 -20 -12 -13 0 -23 -3 -23 -8 0 -5 -10 -6 -21 -3
-14 5 -19 4 -15 -4 5 -7 1 -8 -10 -4 -13 5 -16 3 -11 -10 4 -11 2 -14 -7 -11
-8 3 -17 0 -21 -5 -3 -6 -11 -8 -17 -5 -5 4 -25 -10 -43 -31 -23 -28 -40 -38
-63 -39 -18 0 -32 -4 -32 -7 0 -7 -27 -17 -65 -25 -10 -3 -23 -10 -27 -17 -4
-6 -8 -10 -9 -7 0 3 -2 15 -5 28 -2 12 1 22 6 22 6 0 10 -5 10 -11 0 -5 5 -7
12 -3 9 6 9 9 0 12 -14 4 -16 52 -2 52 5 0 7 -8 4 -17 -5 -15 -4 -15 4 -3 8
10 7 19 -1 29 -10 12 -9 14 5 8 13 -4 15 -2 11 10 -5 12 -2 15 10 10 9 -3 19
-2 22 3 4 6 -2 10 -11 10 -13 0 -15 3 -7 11 6 6 9 18 6 25 -3 8 0 14 6 14 6 0
11 8 11 18 1 15 2 15 15 -2 8 -11 18 -16 22 -11 5 4 2 10 -4 12 -17 6 -16 21
3 40 13 13 13 18 2 24 -11 7 -10 11 2 19 8 5 21 10 28 10 6 0 12 5 12 11 0 6
-9 8 -22 4 -20 -5 -21 -4 -6 5 13 8 23 8 38 0 11 -6 25 -8 30 -5 6 3 10 1 10
-4 0 -6 5 -11 10 -11 6 0 10 7 10 16 0 8 -4 12 -10 9 -5 -3 -10 0 -11 7 0 10
-2 10 -6 1 -2 -7 -9 -13 -14 -13 -4 0 -6 7 -3 15 4 10 0 15 -12 16 -16 0 -15
2 4 9 12 5 29 7 37 4 10 -4 15 0 15 14 0 11 6 23 13 26 6 4 -2 4 -20 1 -26 -3
-31 -1 -26 11 3 9 12 13 21 9 24 -9 54 5 47 22 -5 14 -3 14 12 2 9 -8 14 -9
10 -3 -3 6 3 21 14 32 21 23 20 26 -5 16 -9 -3 -14 -10 -11 -14 3 -5 -5 -6
-17 -2 -16 4 -18 7 -7 11 8 3 26 14 39 24 21 15 23 19 10 27 -10 6 -11 10 -3
10 7 0 12 3 12 8 -4 21 2 50 14 66 12 16 13 16 14 -4 1 -12 -2 -18 -9 -14 -7
4 -8 2 -4 -5 4 -6 2 -20 -5 -29 -11 -13 -8 -12 9 2 12 11 22 16 22 11 0 -4 7
-2 15 5 22 18 46 -4 26 -22 -11 -11 -12 -10 -6 1 5 9 3 12 -6 9 -8 -3 -13 -15
-10 -29 2 -13 4 -30 5 -37 1 -7 7 -17 14 -24 9 -9 13 -7 18 5 4 13 10 14 24 7
25 -13 27 -13 33 9 6 23 -15 34 -33 18 -10 -9 -11 -7 -5 10 5 19 3 22 -12 17
-17 -5 -17 -5 0 6 15 10 16 13 2 26 -8 9 -15 21 -14 27 0 9 2 8 6 0 7 -18 23
-16 23 3 0 8 5 12 10 9 8 -5 8 -11 1 -19 -14 -17 -4 -26 28 -27 23 0 24 -1 6
-8 -11 -5 -26 -6 -34 -3 -9 3 -12 1 -7 -6 9 -15 31 -15 57 -1 17 9 18 13 7 27
-10 13 -10 14 0 8 14 -9 42 10 42 28 0 6 -5 4 -10 -4 -8 -13 -10 -13 -10 2 0
18 25 48 41 48 5 0 19 -22 31 -50 12 -27 26 -50 31 -50 4 0 5 -9 2 -20 -5 -14
-2 -20 9 -20 9 0 16 9 16 20 0 11 5 20 11 20 6 0 8 8 4 19 -7 24 30 61 59 60
12 0 15 -3 9 -6 -7 -2 -12 -17 -12 -31 1 -17 3 -21 6 -9 4 15 15 21 36 18 11
-2 9 13 -4 26 -8 8 -8 13 0 17 6 4 11 0 11 -8 0 -19 7 -20 24 -3 7 7 11 26 9
42 -3 17 3 44 11 60 9 17 16 25 16 18 0 -6 3 -19 7 -29 4 -11 3 -15 -4 -11
-16 10 -25 -22 -13 -41 9 -14 10 -13 4 6 -5 21 -3 23 17 17 18 -6 21 -4 16 9
-4 10 -1 16 9 16 9 0 12 -5 8 -12 -4 -7 -3 -8 5 -4 6 4 9 11 6 16 -3 4 1 11 7
14 7 4 3 4 -9 2 -28 -5 -30 10 -3 19 21 7 27 30 10 40 -5 3 -10 10 -10 16 0 5
5 9 10 9 6 0 10 -7 10 -15 0 -18 11 -19 29 -2 11 10 13 9 8 -4 -3 -9 3 -21 15
-28 17 -11 23 -8 49 21 16 18 29 28 29 21 0 -7 7 -10 16 -6 8 3 13 11 10 18
-5 14 41 8 50 -6 10 -17 33 -9 40 13 4 15 1 26 -12 36 -19 14 -19 15 0 8 10
-3 27 -4 37 -1 17 6 17 8 4 21 -8 9 -15 25 -15 37 0 16 3 19 9 8 5 -7 20 -15
34 -16 14 -2 31 -6 37 -10 7 -4 14 1 17 13 3 12 13 20 24 19 12 -1 15 -5 9
-11 -6 -6 -10 -17 -10 -25 0 -8 3 -12 6 -8 4 3 13 0 21 -8 17 -18 33 -19 33
-4 0 7 7 17 17 24 14 11 12 13 -15 23 -36 12 -44 27 -11 19 13 -3 28 1 37 9
13 14 16 14 24 1 5 -10 16 -13 30 -10 13 3 20 2 15 -2 -4 -5 -17 -10 -29 -12
-29 -5 -34 -11 -19 -26 11 -9 14 -9 18 1 3 6 9 10 13 7 5 -3 7 -12 3 -20 -3
-8 0 -15 7 -15 6 0 9 4 6 9 -3 5 0 14 8 20 11 9 15 9 19 -1 3 -8 6 -6 6 5 1
10 6 15 11 12 6 -3 10 -1 10 4 0 6 -5 11 -11 11 -8 0 -7 5 2 16 10 13 10 17
-2 25 -12 8 -12 10 1 18 8 5 18 7 22 4 5 -2 14 -1 21 4 7 5 26 10 42 12 36 4
70 20 43 21 -10 0 -18 5 -18 11 0 5 4 8 9 4 5 -3 12 -1 15 4 4 5 2 12 -4 16
-12 7 -14 26 -2 24 19 -3 33 2 27 11 -3 6 -2 10 4 10 5 0 12 -4 16 -10z m105
-401 c0 -20 1 -21 25 -5 30 20 39 20 32 2 -4 -10 0 -12 15 -8 14 3 19 1 14 -6
-4 -7 -1 -12 8 -12 9 0 15 -3 15 -7 -1 -5 -1 -16 0 -27 1 -15 4 -16 16 -6 12
10 15 9 15 -4 0 -9 -7 -19 -15 -22 -8 -4 -15 -17 -15 -31 0 -23 3 -25 28 -19
39 9 119 17 105 10 -7 -3 -13 -16 -13 -28 0 -19 -32 -55 -42 -45 -2 2 -14 -5
-26 -17 -12 -12 -40 -27 -62 -34 -22 -7 -40 -17 -40 -22 0 -9 34 -6 63 7 9 4
29 5 42 3 15 -3 25 -1 25 6 0 6 4 5 9 -3 10 -16 3 -42 -13 -53 -7 -5 -6 -8 3
-8 10 0 11 -3 2 -13 -6 -8 -7 -18 -3 -22 4 -5 2 -5 -4 -2 -14 8 -33 -13 -39
-44 -3 -12 -10 -26 -16 -30 -6 -4 -8 -16 -4 -28 8 -25 -3 -64 -15 -56 -5 3
-18 -3 -30 -15 -11 -11 -20 -17 -20 -12 0 4 -10 -6 -21 -23 -13 -19 -19 -23
-15 -10 6 19 5 19 -7 3 -8 -10 -17 -15 -20 -11 -4 3 -7 -1 -7 -10 0 -10 -4
-17 -10 -17 -5 0 -10 6 -10 13 0 9 -2 9 -9 -1 -4 -7 -17 -15 -27 -16 -10 -2
-18 -9 -16 -15 1 -7 -7 -9 -25 -5 -22 4 -25 3 -13 -5 8 -6 11 -11 5 -11 -5 0
-3 -5 5 -11 12 -9 11 -10 -7 -6 -13 3 -23 2 -23 -3 0 -4 -7 -11 -16 -14 -8 -3
-13 -2 -10 3 4 5 -5 4 -19 -2 -14 -7 -25 -18 -25 -26 0 -8 -7 -11 -20 -8 -18
5 -25 -4 -21 -27 1 -5 -7 -6 -18 -3 -13 3 -21 -1 -24 -15 -3 -11 -10 -17 -16
-13 -6 3 -11 -2 -11 -12 0 -14 -2 -15 -9 -5 -7 12 -12 12 -30 1 -11 -8 -21
-17 -21 -22 0 -4 -4 -5 -10 -2 -5 3 -10 0 -10 -8 0 -11 -7 -13 -22 -9 -15 4
-19 2 -14 -7 5 -8 3 -11 -6 -9 -7 1 -24 -8 -36 -20 -15 -15 -31 -22 -43 -19
-10 3 -17 1 -14 -4 3 -4 -6 -11 -20 -15 -14 -3 -25 -9 -25 -13 0 -4 -26 -18
-57 -31 -32 -13 -64 -28 -71 -33 -8 -6 -23 -11 -34 -12 -11 -1 -23 -7 -26 -13
-4 -5 -52 -34 -107 -62 -55 -29 -126 -70 -158 -91 -32 -21 -66 -41 -77 -44
-11 -4 -20 -11 -20 -16 0 -5 -4 -9 -9 -9 -6 0 -24 -13 -42 -30 -18 -16 -35
-28 -37 -26 -2 2 -15 -7 -29 -20 -14 -13 -30 -24 -36 -24 -6 0 -25 -11 -43
-25 -18 -14 -36 -25 -39 -25 -4 0 -13 -7 -22 -15 -8 -8 -19 -12 -25 -9 -7 4
-8 2 -4 -4 4 -7 -3 -14 -19 -18 -13 -3 -22 -10 -19 -15 3 -5 0 -10 -5 -10 -24
-3 -40 -10 -128 -60 -19 -11 -40 -19 -48 -19 -8 0 -15 -5 -15 -11 0 -5 -4 -8
-10 -4 -9 5 -41 -9 -66 -30 -37 -31 -55 -43 -109 -70 -33 -16 -69 -38 -80 -48
-10 -9 -42 -24 -69 -32 -27 -8 -56 -21 -65 -29 -9 -7 -23 -13 -31 -13 -20 0
-126 -49 -135 -63 -4 -6 -15 -8 -26 -5 -12 4 -19 2 -19 -7 -1 -9 -4 -8 -10 3
-9 15 -15 12 -52 -22 -32 -29 -45 -35 -55 -27 -15 12 -18 42 -3 33 6 -3 10 1
10 9 0 19 5 20 32 5 15 -8 23 -8 32 1 8 8 7 10 -6 5 -10 -4 -18 -4 -18 -1 0 3
8 15 18 25 36 41 42 50 36 65 -3 9 -2 16 4 16 5 0 13 -8 17 -17 6 -17 7 -17
16 0 6 9 15 15 21 11 7 -4 8 5 4 27 -6 27 -5 30 4 17 12 -20 35 -24 45 -8 4 6
-1 7 -11 3 -12 -4 -15 -3 -10 5 4 7 2 12 -4 12 -6 0 -9 4 -5 10 3 5 13 6 23 3
16 -6 16 -6 0 11 -22 21 -23 30 -3 23 8 -4 17 -2 20 4 4 5 11 6 17 3 6 -4 8 1
3 15 -6 19 -2 21 32 22 30 2 32 3 11 6 -40 6 -34 23 8 23 21 0 33 4 29 10 -3
6 -1 10 4 10 6 0 11 5 11 11 0 5 -3 8 -7 6 -5 -3 -8 6 -8 20 l0 24 22 -28 c27
-33 29 -28 7 16 -19 38 -13 52 6 16 7 -14 17 -25 22 -25 5 0 4 9 -2 19 -13 25
-13 34 0 26 6 -3 10 0 11 7 0 7 5 3 11 -9 6 -13 18 -23 27 -23 12 0 12 3 3 12
-17 17 -15 41 3 34 8 -3 15 -1 15 4 0 6 -7 10 -16 10 -9 0 -14 5 -12 11 2 6 7
9 11 7 3 -2 14 7 22 20 9 12 23 22 31 22 8 0 14 10 14 26 0 22 2 25 15 14 12
-10 15 -10 16 1 0 10 2 11 6 2 6 -17 20 -17 20 0 0 7 3 25 7 41 6 23 4 27 -8
23 -9 -4 -18 -2 -21 2 -2 5 4 11 15 14 13 3 25 -2 35 -16 8 -11 18 -17 22 -13
5 5 2 11 -4 13 -20 7 -15 25 5 19 18 -6 62 22 62 40 0 4 -5 3 -11 -3 -14 -14
-49 -5 -49 12 0 7 6 15 13 18 8 3 9 8 1 16 -16 17 -4 70 18 82 12 7 17 17 13
28 -3 10 -1 30 4 45 8 20 8 26 -4 26 -7 0 -17 -4 -20 -10 -3 -5 -1 -10 4 -10
6 0 11 -4 11 -10 0 -5 -7 -10 -15 -10 -20 0 -19 39 1 68 9 13 13 26 10 29 -3
4 -6 1 -6 -5 0 -7 -9 -12 -20 -12 -11 0 -20 2 -20 4 0 2 -3 12 -6 20 -5 12 -2
15 12 9 12 -4 15 -3 10 5 -4 7 -1 12 8 12 8 0 16 -6 18 -12 3 -7 7 -3 10 9 4
14 2 20 -6 18 -6 -2 -24 -6 -39 -9 -16 -4 -32 -16 -37 -29 -7 -17 -9 -18 -9
-4 -1 9 -8 17 -16 17 -9 0 -12 6 -8 16 3 8 12 13 20 10 8 -3 11 -1 8 4 -3 6 4
10 16 10 18 0 19 2 9 15 -18 22 4 18 24 -4 16 -17 21 -18 49 -6 24 10 31 19
29 34 -2 14 2 21 12 21 9 0 16 6 17 13 0 10 2 10 6 0 8 -21 25 -15 18 6 -4 14
2 21 25 31 16 7 27 16 25 21 -3 4 4 13 16 20 16 8 23 8 29 -1 5 -9 9 -9 14 -1
4 6 4 16 0 22 -4 8 0 9 15 4 15 -5 21 -2 21 10 0 8 11 20 24 25 13 5 27 14 31
20 3 5 11 8 16 5 5 -4 24 5 41 18 29 22 94 59 108 62 10 2 85 40 90 45 3 3 30
18 60 34 30 15 69 36 85 46 17 10 38 19 47 19 9 1 18 5 20 9 2 5 28 21 58 36
219 112 351 176 360 176 6 0 9 4 6 9 -4 5 3 7 14 4 12 -3 22 1 26 11 3 9 10
14 14 11 5 -3 11 -1 15 5 4 6 11 8 16 5 5 -4 9 -2 9 3 0 6 17 13 38 17 20 4
42 11 49 17 7 5 17 7 23 3 5 -3 10 -1 10 5 0 7 7 9 16 6 9 -3 12 -2 9 5 -4 6
2 8 17 4 15 -4 30 0 43 13 11 10 26 17 33 14 6 -2 26 7 44 19 33 24 102 35 92
15 -3 -6 3 -2 12 9 25 29 64 31 64 4z m-6305 -200 c44 -20 54 -32 35 -44 -5
-3 -7 -12 -4 -20 16 -40 -101 -43 -134 -4 -9 10 -21 19 -27 19 -15 0 -35 37
-29 54 12 31 83 28 159 -5z m-164 -169 c25 -14 24 -51 0 -72 -27 -23 -126 -27
-147 -6 -15 14 -11 67 5 69 22 2 44 8 49 13 9 10 72 7 93 -4z m1482 -890 c28
-22 47 -26 47 -8 0 6 3 8 6 5 4 -4 1 -13 -6 -22 -11 -13 -9 -15 13 -15 21 0
25 4 20 18 -5 14 -3 13 10 -3 8 -11 14 -22 12 -25 -2 -3 11 -6 28 -7 17 0 37
-9 44 -19 7 -10 13 -12 13 -6 0 7 5 12 11 12 6 0 8 -9 4 -20 -5 -17 0 -21 34
-26 22 -4 38 -10 35 -15 -3 -5 2 -9 10 -9 8 0 20 -8 25 -17 7 -12 10 -14 11
-4 0 11 3 11 15 1 11 -9 13 -15 5 -20 -8 -5 -6 -9 5 -13 9 -4 13 -3 10 3 -10
17 5 11 27 -10 12 -11 28 -20 35 -20 7 0 13 -5 13 -11 0 -5 4 -8 8 -5 5 3 18
-4 30 -14 12 -11 25 -20 30 -20 5 0 17 -9 27 -20 10 -11 24 -20 32 -20 7 0 13
-4 13 -8 0 -5 11 -15 25 -22 14 -7 25 -17 25 -21 0 -14 -39 -16 -64 -4 -17 9
-25 10 -23 2 2 -13 -71 -28 -79 -15 -3 5 -15 6 -26 2 -12 -3 -37 -8 -57 -10
-20 -2 -54 -5 -76 -8 -22 -2 -96 -7 -164 -10 -68 -4 -127 -9 -132 -12 -5 -3
-53 -7 -106 -9 -54 -3 -108 -7 -120 -9 -12 -3 -75 -7 -140 -10 -65 -4 -134 -9
-153 -11 -87 -13 -105 -14 -112 -2 -5 8 -10 9 -15 2 -5 -6 -15 -10 -23 -9 -8
0 -23 2 -33 2 -11 1 -16 7 -12 15 4 6 0 4 -8 -6 -10 -12 -17 -14 -22 -7 -3 5
-11 8 -16 5 -5 -4 -9 -2 -9 3 0 6 -7 13 -16 16 -8 3 -12 2 -9 -4 3 -6 -1 -7
-9 -4 -9 3 -16 10 -16 15 0 5 -6 9 -13 9 -14 0 -42 29 -49 51 -3 8 -13 14 -24
14 -10 0 -18 6 -17 13 2 6 -2 12 -7 12 -6 0 -10 6 -10 13 0 7 -16 29 -36 50
-29 29 -35 43 -31 64 3 15 1 36 -5 46 -13 26 -7 29 26 12 34 -18 39 -19 30 -3
-4 7 -3 8 4 4 18 -11 15 -36 -3 -30 -8 4 -15 2 -15 -3 0 -5 11 -10 24 -11 25
-2 27 8 11 51 -4 9 -3 17 3 17 6 0 12 -10 14 -22 2 -15 11 -23 31 -25 15 -2
27 1 27 7 0 7 6 8 19 0 14 -7 21 -6 24 3 3 6 6 0 6 -15 1 -29 -13 -38 -22 -15
-3 7 -6 5 -6 -5 -1 -10 6 -18 15 -18 10 0 14 -6 10 -15 -4 -10 1 -15 15 -15
14 0 19 -5 16 -14 -4 -10 -1 -13 9 -9 18 7 18 11 -2 30 -8 9 -13 22 -10 29 3
8 1 14 -4 14 -6 0 -10 10 -10 22 0 12 3 18 8 14 4 -4 7 -13 7 -18 0 -6 12 -12
28 -12 15 -1 27 2 27 6 0 4 7 5 15 2 18 -7 18 -8 6 34 -6 20 -6 30 0 27 5 -4
9 1 9 9 0 8 -8 16 -17 18 -11 3 -5 6 14 9 18 3 30 2 27 -3 -3 -4 0 -8 5 -8 6
0 11 5 11 10 0 6 5 10 11 10 6 0 8 -9 4 -21 -5 -15 -4 -19 4 -15 6 4 11 1 11
-6 0 -7 7 -2 17 11 15 22 15 25 0 36 -9 7 -14 15 -11 18 3 3 -4 10 -15 17 -12
6 -20 18 -20 28 1 13 2 13 7 -3 4 -18 5 -19 11 -2 5 14 13 5 37 -40 31 -59 35
-95 8 -72 -11 9 -14 8 -14 -6 0 -10 3 -15 6 -12 4 3 16 1 27 -5 17 -8 19 -8
14 5 -3 9 -1 18 6 20 8 3 6 11 -7 26 -17 18 -17 21 -3 15 22 -8 21 -2 -3 38
-25 41 -25 47 -2 45 14 -1 17 -8 14 -31 -3 -25 -1 -28 8 -16 10 13 11 13 6 -2
-3 -10 0 -20 6 -24 7 -4 7 -9 -1 -14 -9 -5 -8 -10 4 -20 12 -10 15 -10 15 4 0
9 7 16 15 16 13 0 19 10 17 30 0 3 11 6 26 7 15 1 21 -1 15 -4 -7 -2 -13 -9
-13 -15 0 -6 6 -8 13 -5 7 3 13 -5 13 -19 1 -17 -2 -21 -15 -17 -14 4 -14 3
-1 -6 8 -6 11 -11 6 -11 -5 0 -3 -6 3 -14 9 -11 9 -15 -1 -18 -7 -3 -4 -7 8
-10 24 -6 29 18 6 27 -11 4 -12 8 -2 20 6 8 9 19 6 24 -4 5 -2 12 4 16 5 3 14
-5 20 -19 5 -14 12 -26 14 -26 3 0 3 6 0 13 -3 8 6 18 21 25 14 6 25 19 25 27
0 9 5 13 10 10 6 -3 10 -1 10 4 0 6 4 11 9 11 5 0 7 -8 4 -18 -3 -12 1 -19 10
-19 9 0 13 6 10 15 -5 12 -2 12 18 3 l24 -12 -24 21 c-20 18 -21 20 -5 19 11
-1 30 -1 43 -1 24 2 24 2 5 17 -19 14 -19 14 1 15 11 0 33 -13 48 -30 30 -31
47 -38 47 -18 0 6 8 3 20 -7 11 -10 17 -21 15 -25 -3 -5 4 -6 15 -3 12 3 19 8
16 10 -2 3 -6 3 -9 1 -7 -4 -47 33 -47 44 0 4 11 8 25 8 17 0 25 -6 26 -17 1
-16 2 -16 6 0 4 14 11 18 29 14 24 -4 24 -3 8 14 -23 25 -3 24 29 -1z m4362
-199 c-7 -12 26 -31 54 -31 11 0 27 9 35 21 12 18 19 20 43 11 25 -9 25 -11 6
-11 -32 -1 -19 -28 18 -36 38 -9 45 -22 23 -46 -21 -23 -34 -25 -34 -4 0 8 -7
15 -15 15 -8 0 -15 -4 -15 -10 0 -5 -5 -10 -11 -10 -5 0 -7 5 -4 10 10 16 -12
12 -29 -5 -8 -8 -19 -15 -25 -15 -15 0 -14 17 2 23 7 3 5 6 -5 6 -10 1 -26 -7
-36 -16 -10 -10 -30 -24 -45 -32 -15 -8 -27 -20 -27 -27 0 -7 -5 -16 -12 -20
-7 -4 -8 -3 -4 4 10 16 -26 16 -42 0 -9 -9 -14 -6 -22 13 -9 22 -10 21 -5 -7
5 -25 2 -32 -13 -36 -10 -3 -30 0 -42 7 -13 7 -30 11 -37 8 -22 -9 -63 7 -63
23 0 12 7 15 24 12 15 -3 27 2 35 14 6 10 16 16 21 13 5 -3 11 -1 15 5 3 5 2
10 -3 10 -5 0 -12 9 -15 20 -6 24 8 27 17 4 3 -8 10 -12 16 -9 5 3 10 -3 10
-15 0 -13 5 -20 12 -18 7 3 13 13 13 24 0 19 40 44 75 47 20 1 29 17 9 17 -5
0 -7 5 -4 10 3 6 17 10 29 10 13 0 29 7 36 15 14 17 25 20 15 6z m-389 -126
c-4 -10 1 -15 17 -16 21 -1 21 -1 -3 -9 -22 -7 -11 -15 15 -10 6 1 4 -4 -2
-11 -7 -7 -13 -19 -13 -27 0 -9 7 -6 19 9 10 13 17 29 14 35 -6 16 33 38 42
24 4 -6 3 -10 -2 -9 -24 4 -37 -1 -26 -12 12 -12 5 -52 -7 -44 -15 9 -21 -29
-7 -40 12 -8 4 -11 -31 -13 -26 -1 -53 -9 -64 -18 -10 -10 -18 -13 -19 -8 0 5
-4 0 -9 -11 -7 -16 -9 -17 -9 -3 -1 9 -6 20 -13 24 -8 5 -9 2 -5 -9 4 -10 1
-17 -6 -17 -7 0 -4 -5 6 -11 10 -6 17 -21 16 -37 0 -15 -3 -21 -6 -14 -2 6
-13 12 -23 12 -27 0 -51 11 -44 21 3 5 -1 6 -8 4 -15 -6 -100 54 -93 65 11 19
112 59 133 53 18 -4 20 -8 10 -14 -18 -12 -31 -11 -23 1 8 12 -5 13 -24 1 -12
-8 -13 -12 -1 -26 7 -9 16 -12 19 -8 3 4 19 15 34 23 28 14 28 15 8 24 -26 11
-23 24 10 44 l24 14 -24 -19 c-30 -25 -17 -33 39 -25 36 4 40 7 21 12 -24 5
-37 35 -21 45 5 3 7 -4 5 -15 -5 -25 13 -27 22 -2 6 15 22 31 32 32 2 0 1 -7
-3 -15z m984 -32 c0 -11 62 -10 78 0 15 10 54 -1 47 -13 -3 -5 7 -3 22 5 34
18 54 19 51 3 -2 -7 11 -12 34 -12 20 -1 39 -4 43 -7 6 -6 -82 -24 -98 -20 -5
1 -34 -3 -65 -8 -32 -6 -77 -13 -102 -16 -25 -3 -74 -10 -110 -15 -36 -6 -87
-12 -113 -15 -26 -2 -51 -6 -55 -9 -4 -2 -47 -7 -97 -11 -49 -3 -102 -8 -117
-11 -21 -4 -26 -2 -23 13 2 10 4 21 4 26 1 4 11 7 24 8 l22 0 -22 9 c-31 13
-29 24 2 16 15 -4 25 -2 25 4 0 6 20 9 49 7 40 -2 48 0 44 13 -3 9 1 8 12 -5
12 -15 18 -17 24 -7 4 7 15 10 23 7 10 -4 22 2 32 17 13 18 16 19 16 5 0 -20
16 -23 24 -4 5 10 7 10 12 0 3 -7 10 -13 16 -13 6 0 8 6 5 13 -5 14 109 17
132 2 10 -5 16 -4 19 3 2 7 8 10 13 6 5 -3 9 0 9 5 0 6 5 11 10 11 6 0 10 -3
10 -7z m-4290 -56 c25 -3 54 -9 65 -14 43 -17 121 -68 142 -91 14 -16 28 -23
41 -20 15 4 20 0 20 -18 0 -19 -6 -24 -25 -24 -21 0 -23 -3 -14 -14 10 -12 6
-14 -24 -11 -40 4 -41 3 -19 -20 10 -9 24 -13 38 -10 17 5 18 4 6 -4 -13 -10
-8 -15 13 -12 4 0 7 -6 7 -14 0 -8 5 -15 10 -15 7 0 7 7 2 18 -5 9 -8 28 -8
42 1 22 5 25 34 23 18 -1 30 2 27 7 -3 5 -1 11 5 15 5 3 10 3 11 -2 4 -42 19
-69 20 -37 0 18 1 18 9 -1 5 -11 9 -31 9 -45 0 -25 0 -25 -9 -2 -11 25 -30 30
-30 6 0 -8 5 -12 11 -9 6 4 9 0 7 -11 -2 -13 4 -20 17 -22 17 -2 21 3 23 30 3
40 7 44 27 28 17 -14 20 -40 5 -40 -5 0 -7 7 -4 15 4 8 1 15 -5 15 -6 0 -11
-13 -11 -30 0 -23 5 -30 19 -30 24 0 45 -25 37 -45 -6 -17 2 -19 24 -5 13 8
13 13 2 31 -15 24 -8 39 10 21 7 -7 11 -29 9 -50 -4 -46 5 -39 18 14 7 32 9
34 10 12 1 -28 15 -37 24 -18 3 6 4 5 3 -2 -2 -7 -11 -12 -20 -12 -9 1 -16 -2
-16 -7 0 -5 6 -9 14 -9 10 0 13 -8 11 -22 -4 -21 -3 -22 9 -5 16 21 45 22 52
2 5 -13 9 -13 22 -3 13 11 15 10 9 -5 -10 -27 3 -41 18 -20 11 14 15 15 28 4
9 -7 25 -10 37 -6 11 4 20 2 20 -4 0 -6 -10 -12 -22 -12 -17 -1 -18 -3 -6 -6
9 -2 26 0 36 6 18 9 20 8 16 -12 -2 -12 -2 -16 2 -9 8 18 24 15 25 -5 0 -15 2
-15 9 2 7 16 9 16 9 4 1 -9 8 -20 17 -23 12 -4 15 -2 11 9 -4 8 -2 17 3 20 6
4 10 -5 10 -18 0 -20 6 -26 30 -29 17 -3 30 0 30 6 0 6 7 3 14 -6 7 -10 18
-18 25 -18 6 0 11 -7 11 -15 0 -9 6 -15 13 -14 26 3 37 -2 37 -16 0 -15 -28
-20 -77 -16 -13 1 -23 -4 -23 -10 0 -7 -3 -10 -6 -6 -3 3 -18 1 -33 -5 -14 -5
-43 -10 -63 -10 -21 1 -38 -3 -38 -9 0 -5 -10 -8 -22 -8 -13 1 -54 -4 -93 -10
-38 -6 -122 -13 -185 -16 -63 -3 -139 -7 -167 -9 -29 -2 -51 -1 -49 3 5 7
-523 6 -579 -2 -264 -37 -331 -44 -351 -37 -16 6 -26 5 -34 -5 -7 -8 -17 -12
-22 -9 -6 4 -5 10 3 15 11 7 10 9 -3 9 -10 0 -18 -4 -18 -10 0 -5 -7 -10 -16
-10 -9 0 -12 5 -8 12 5 7 3 8 -7 2 -8 -5 -22 -7 -31 -6 -10 2 -18 -2 -18 -8 0
-6 -5 -8 -12 -3 -19 11 -82 10 -90 -1 -4 -6 -16 -6 -33 2 -35 16 -45 15 -46
-5 -1 -12 -4 -10 -9 7 -4 14 -8 19 -9 12 -1 -9 -12 -7 -40 7 -21 11 -42 17
-45 13 -4 -3 -4 0 -1 9 4 10 -5 18 -26 26 -17 7 -28 17 -24 22 3 6 -1 11 -9
11 -9 0 -16 5 -16 11 0 5 -5 7 -11 3 -6 -3 -14 -3 -18 2 -3 5 -25 22 -49 37
l-43 28 33 30 33 30 -38 -6 c-24 -4 -48 -1 -68 9 -27 13 -29 14 -19 0 24 -28
2 -25 -24 3 -31 33 -30 53 4 70 14 7 25 17 24 23 -3 31 -4 32 -19 20 -11 -9
-15 -10 -15 -1 0 8 -8 10 -21 6 -15 -5 -19 -4 -14 4 4 7 1 19 -7 28 -11 15
-11 16 5 10 21 -8 22 1 0 25 -12 14 -13 18 -3 18 11 0 11 3 2 12 -8 8 -8 17
-1 30 6 11 8 26 5 34 -6 16 31 39 57 35 11 -1 20 5 24 17 4 17 9 19 36 11 40
-11 37 -12 37 7 0 10 5 12 13 7 22 -14 47 -13 47 1 0 8 8 14 18 14 9 -1 37 5
62 12 25 7 63 14 85 16 94 8 197 19 260 29 17 2 80 7 140 10 61 3 148 8 195
11 133 9 362 20 390 17 14 -1 45 -4 70 -6z m4640 -1 c0 -2 -7 -12 -16 -21 -13
-12 -14 -19 -5 -28 8 -8 11 -7 11 4 0 19 36 49 58 48 15 -1 15 -2 0 -6 -19 -5
-19 -36 -2 -67 8 -13 18 -17 32 -14 12 3 22 2 24 -3 2 -5 26 -12 53 -16 48 -6
49 -5 35 12 -14 17 -13 18 5 9 11 -5 35 -9 53 -9 18 0 31 -4 29 -10 -3 -5 7
-11 21 -12 17 -1 21 2 11 7 -7 5 -11 11 -8 15 3 3 14 -3 23 -14 15 -16 15 -22
4 -40 -11 -18 -11 -23 1 -30 8 -5 20 -7 28 -4 29 11 11 -24 -22 -41 -28 -15
-40 -17 -59 -8 -19 8 -26 8 -30 -1 -5 -9 -7 -9 -12 1 -4 9 -10 10 -18 3 -8 -7
-24 -7 -46 -1 -36 10 -46 8 -35 -10 4 -6 13 -9 21 -6 7 3 16 1 19 -5 4 -5 19
-8 33 -7 15 1 33 -1 40 -6 13 -8 17 -27 5 -24 -5 1 -18 -4 -31 -11 -18 -10
-26 -10 -38 0 -11 9 -14 8 -14 -5 0 -9 10 -21 23 -27 31 -14 66 -35 75 -44 4
-5 2 -5 -5 -1 -15 8 -93 -4 -93 -15 0 -5 8 -10 18 -10 9 -1 -5 -5 -32 -11 -27
-5 -56 -6 -65 -2 -9 4 -28 6 -43 5 -18 -2 -30 4 -38 19 -10 19 -13 19 -33 5
-12 -8 -34 -15 -50 -15 -15 0 -30 -6 -33 -14 -3 -8 -17 -17 -31 -21 -43 -10
-17 -18 75 -21 56 -2 80 0 67 6 -19 8 -19 9 3 9 12 1 22 -4 22 -9 0 -6 -10
-15 -22 -20 -21 -8 -20 -9 9 -9 17 -1 35 -5 38 -11 3 -5 15 -10 26 -10 10 0
19 -4 19 -10 0 -8 -47 -15 -97 -13 -7 1 -13 -3 -13 -7 0 -7 69 -18 142 -23 52
-3 60 -17 10 -17 -31 0 -42 -4 -42 -15 0 -8 6 -15 13 -15 8 0 7 -3 -3 -10 -8
-5 -11 -12 -7 -16 3 -4 13 -1 21 5 10 8 16 9 21 1 3 -5 -1 -10 -9 -10 -9 0
-16 -4 -16 -10 0 -5 9 -10 20 -10 19 0 24 -10 21 -39 -2 -8 2 -10 11 -5 10 6
10 4 0 -9 -12 -14 -16 -15 -29 -2 -16 17 -43 20 -43 5 0 -5 6 -7 13 -4 17 6
65 -45 51 -54 -16 -11 -24 -41 -14 -47 6 -4 10 3 10 15 0 12 4 19 9 16 5 -3
11 1 15 9 8 22 23 18 29 -6 3 -12 10 -18 16 -15 5 4 14 -1 19 -11 9 -14 13
-15 26 -4 13 11 17 10 23 -5 4 -10 2 -19 -5 -22 -7 -2 -10 -8 -6 -13 3 -5 -2
-9 -12 -9 -13 0 -14 -3 -5 -14 16 -19 -7 -27 -53 -16 -21 4 -34 4 -30 -1 8
-14 -14 -10 -28 4 -7 8 -20 12 -30 9 -10 -2 -18 1 -18 7 0 7 -4 10 -9 6 -5 -3
-12 -1 -16 5 -3 5 -11 10 -17 10 -7 0 -2 -9 10 -21 12 -11 20 -24 17 -29 -3
-6 1 -7 9 -4 10 4 18 -1 22 -11 5 -11 9 -13 14 -5 4 7 17 9 34 4 l27 -6 -23
-22 c-12 -11 -27 -21 -33 -21 -5 0 -9 -8 -9 -18 1 -9 -2 -17 -7 -17 -5 0 -9 9
-9 20 0 11 -4 20 -9 20 -6 0 -7 -17 -4 -37 5 -31 3 -36 -8 -25 -16 14 -33 16
-24 2 8 -13 -17 -38 -33 -32 -6 2 -12 -1 -12 -7 0 -6 7 -11 15 -11 8 0 15 -4
15 -10 0 -5 -9 -10 -20 -10 -11 0 -20 6 -20 13 0 8 -3 7 -9 -3 -6 -8 -7 -18
-4 -23 3 -4 -4 -11 -14 -13 -15 -4 -19 -12 -15 -30 3 -19 9 -23 24 -18 18 5
19 3 14 -23 -8 -36 25 -77 55 -68 26 8 26 -21 0 -34 -14 -8 -25 -6 -44 9 -33
26 -39 25 -26 -4 14 -30 5 -71 -21 -93 -14 -12 -16 -21 -9 -35 7 -14 6 -18 -6
-18 -8 0 -15 -6 -15 -12 0 -7 -7 -22 -15 -32 -12 -15 -17 -17 -29 -7 -8 7 -20
11 -28 10 -22 -4 -48 12 -49 30 0 11 -2 12 -6 3 -3 -7 5 -24 18 -38 19 -20 20
-24 6 -24 -9 0 -17 -5 -17 -11 0 -6 9 -8 23 -4 21 6 21 5 4 -8 -14 -12 -15
-16 -5 -21 7 -3 -9 -4 -35 -1 -36 4 -48 2 -44 -8 2 -6 9 -12 15 -12 5 0 14 -3
18 -7 4 -5 1 -8 -7 -8 -8 0 -19 4 -25 9 -5 6 -16 4 -29 -5 -16 -12 -18 -18 -7
-34 15 -25 15 -30 -2 -30 -16 0 -70 50 -79 74 -4 9 -13 16 -21 16 -9 0 -12 7
-9 20 3 12 0 20 -7 20 -7 0 -10 7 -6 15 4 12 -4 14 -48 12 -43 -2 -52 -5 -48
-17 4 -12 2 -13 -9 -2 -18 16 -29 15 -29 -3 0 -8 -5 -15 -11 -15 -5 0 -7 5 -4
11 4 5 4 22 1 35 -5 18 -12 24 -23 20 -12 -5 -14 -1 -9 19 4 14 4 25 2 25 -2
0 -12 3 -21 6 -10 4 -15 2 -13 -6 2 -7 -9 -14 -25 -15 -26 -3 -28 -1 -23 19 5
20 1 25 -21 29 -16 3 -36 1 -46 -4 -24 -14 -57 -2 -57 20 0 10 -7 18 -15 18
-8 0 -15 -6 -15 -14 0 -7 -4 -13 -10 -13 -5 0 -10 11 -10 24 0 24 34 43 46 25
3 -5 18 -9 35 -9 25 0 29 4 29 26 l0 26 46 -27 c25 -15 48 -24 51 -21 4 3 1 6
-5 6 -7 0 -12 9 -12 20 0 16 -7 20 -30 20 -24 0 -30 4 -30 21 0 11 -4 18 -8
15 -11 -6 -42 30 -42 49 0 7 -13 22 -30 32 -32 19 -37 28 -17 36 9 4 9 6 0 6
-6 1 -15 -3 -18 -9 -10 -16 -43 -12 -62 9 -10 10 -27 23 -38 29 -20 11 -20 12
3 18 37 11 26 27 -14 19 -29 -5 -41 -2 -60 16 -12 12 -30 19 -38 16 -8 -3 -16
2 -19 14 -3 10 0 19 6 20 7 0 2 4 -10 9 -13 5 -23 15 -23 21 0 6 -8 9 -18 7
-11 -3 -23 2 -30 13 -7 11 -19 16 -34 13 -13 -2 -17 -1 -10 2 10 5 10 10 -4
25 -9 10 -21 19 -25 19 -19 0 -46 33 -42 51 3 11 9 19 14 19 5 0 6 -6 3 -13
-5 -14 50 -60 60 -50 12 12 6 22 -16 25 -11 2 -22 10 -23 18 -2 12 7 14 41 11
46 -3 58 -22 32 -50 -11 -11 -10 -13 2 -9 8 2 17 15 20 29 5 19 14 25 40 28
33 4 33 4 10 11 -22 7 -23 8 -6 15 12 5 21 3 27 -6 14 -23 11 -29 -16 -29 -15
0 -25 -6 -25 -14 0 -8 -3 -22 -6 -31 -4 -10 -2 -15 7 -13 9 2 13 -5 11 -19 -2
-17 2 -23 15 -23 14 0 15 2 4 9 -8 5 -9 11 -3 15 5 3 12 -1 16 -9 3 -8 -2 -18
-11 -23 -10 -6 -12 -12 -5 -16 6 -4 20 2 32 14 25 25 42 26 33 3 -5 -15 -3
-16 7 -6 12 11 9 18 -13 41 -30 31 -35 47 -12 39 17 -7 32 12 17 22 -15 9 -2
63 14 57 7 -3 15 0 18 7 2 7 5 3 5 -7 1 -15 4 -17 12 -9 7 7 21 8 41 2 38 -11
52 -23 17 -14 -16 4 -30 2 -33 -4 -4 -7 1 -11 14 -11 12 0 19 -4 15 -10 -3 -5
7 -3 22 5 24 13 29 13 36 0 4 -9 12 -13 16 -10 5 2 14 -2 21 -9 6 -8 25 -18
42 -21 29 -7 88 -32 138 -61 14 -7 32 -14 40 -14 8 0 35 -13 59 -29 25 -17 49
-27 54 -24 6 4 7 1 2 -7 -5 -8 -3 -11 6 -8 7 2 47 -13 89 -34 41 -21 81 -38
88 -38 6 0 12 -4 12 -10 0 -5 7 -10 15 -10 8 0 15 -4 15 -9 0 -5 15 -12 33
-15 18 -3 40 -15 50 -26 9 -11 23 -20 32 -20 17 0 39 -36 29 -51 -3 -6 -16
-14 -28 -19 -16 -6 -9 -8 27 -8 50 0 56 4 31 23 -9 6 -17 26 -18 43 0 18 -5
32 -9 32 -5 0 -6 4 -3 9 4 5 -2 7 -12 4 -11 -2 -25 2 -33 9 -8 8 -39 26 -69
41 -30 15 -80 41 -110 58 -30 17 -55 30 -55 30 0 0 -10 2 -22 5 -13 4 -23 11
-23 16 0 6 -12 8 -26 5 -16 -3 -28 0 -31 9 -2 7 -11 10 -18 8 -7 -3 -16 -1
-20 5 -3 6 -1 11 5 11 6 0 8 5 5 11 -4 6 -14 8 -23 4 -16 -6 -103 32 -110 48
-2 4 -12 7 -23 7 -10 0 -19 4 -19 9 0 8 -66 26 -82 23 -5 -1 -8 2 -8 7 0 5
-11 12 -25 15 -14 4 -25 11 -25 16 0 6 -7 10 -15 10 -26 0 -105 43 -105 58 0
8 7 11 18 8 20 -7 66 29 57 45 -4 5 3 9 15 9 12 0 19 4 16 9 -3 5 4 16 17 24
12 8 35 26 50 41 15 14 33 26 40 27 22 2 72 8 197 22 69 7 205 13 302 12 97 0
175 3 172 7 -3 4 -11 5 -19 1 -8 -3 -15 -1 -15 3 0 12 -339 6 -503 -9 l-136
-13 -58 44 c-32 24 -57 50 -57 58 1 9 -4 13 -15 9 -9 -2 -29 4 -46 15 -35 23
-46 25 -39 6 3 -8 1 -17 -5 -21 -6 -3 -11 -11 -11 -17 0 -7 4 -7 13 0 13 11
29 1 105 -67 12 -12 26 -21 30 -21 4 0 8 -10 9 -21 2 -20 1 -20 -11 -4 -10 14
-15 15 -21 6 -4 -7 -3 -17 3 -23 14 -14 -27 -60 -46 -53 -10 3 -12 0 -9 -10 4
-8 2 -17 -4 -20 -5 -4 -7 -11 -4 -16 3 -5 -1 -6 -10 -3 -11 5 -14 2 -9 -10 3
-9 1 -16 -5 -16 -6 0 -11 5 -11 10 0 6 -7 10 -15 10 -10 0 -12 -6 -8 -17 6
-16 5 -17 -12 -3 -17 14 -18 13 -12 -2 3 -10 2 -18 -3 -18 -6 0 -10 5 -10 10
0 6 -11 10 -25 10 -15 0 -25 -6 -25 -15 0 -8 -14 -17 -35 -21 -27 -5 -41 -2
-57 12 -20 19 -21 19 -35 -3 -9 -13 -22 -23 -30 -23 -13 0 -13 3 -3 15 10 13
9 15 -10 15 -16 0 -20 -4 -16 -15 8 -21 -10 -19 -26 3 -7 9 -19 17 -25 18 -28
2 -33 4 -33 13 0 5 9 13 20 16 11 4 20 15 20 27 0 21 -21 20 -28 -2 -3 -8 0
-10 8 -5 8 5 11 4 6 -3 -3 -6 -20 -9 -36 -7 -21 2 -30 -1 -30 -10 0 -9 -6 -12
-16 -8 -13 5 -15 1 -9 -18 4 -15 3 -19 -3 -11 -5 7 -15 10 -24 7 -8 -3 -21 1
-28 10 -18 21 -33 19 -21 -3 18 -34 -33 -57 -69 -31 -12 8 -9 9 12 5 16 -4 30
-1 34 6 5 7 2 9 -8 5 -9 -3 -19 -3 -22 0 -10 10 -116 8 -113 -2 2 -5 14 -9 25
-7 21 3 33 -22 13 -30 -4 -1 -11 -14 -15 -28 l-7 -25 15 25 15 25 1 -23 c0
-12 -7 -25 -16 -29 -42 -16 -264 2 -264 21 0 6 -3 21 -6 34 -6 19 -3 22 22 21
19 0 24 -3 14 -7 -9 -4 -15 -13 -15 -21 0 -17 21 -26 29 -13 7 11 85 -4 101
-19 13 -13 25 -11 25 6 0 9 -6 12 -17 8 -16 -6 -16 -4 1 15 l19 21 28 -19 c17
-13 30 -17 34 -10 3 6 -1 13 -10 16 -14 6 -14 9 -3 16 10 7 9 8 -4 4 -23 -7
-48 3 -48 19 0 8 -9 11 -24 8 -21 -4 -24 -2 -19 15 3 12 16 22 35 26 17 3 27
10 23 17 -4 5 -4 26 -1 45 5 25 12 34 26 34 11 0 20 4 20 10 0 5 -28 11 -62
13 -61 3 -60 3 17 5 61 2 76 -1 67 -10 -15 -15 -16 -31 -1 -22 6 3 15 0 20 -7
5 -9 1 -18 -14 -26 l-22 -12 25 -1 c27 -1 64 -23 54 -33 -4 -3 2 -6 12 -5 11
0 28 -3 39 -7 20 -8 20 -8 1 13 -17 20 -17 22 -2 38 20 20 34 11 16 -11 -7 -8
-8 -15 -3 -15 6 0 14 10 20 22 6 15 12 18 17 10 4 -7 2 -12 -3 -12 -6 0 -11
-4 -11 -9 0 -6 8 -10 18 -10 9 1 28 -2 42 -6 20 -5 22 -5 10 5 -12 9 -13 12
-1 17 11 5 11 7 0 15 -12 8 -12 10 0 15 11 5 11 7 0 14 -10 6 -7 10 11 17 17
7 26 6 29 -1 2 -6 -1 -13 -7 -15 -18 -6 -14 -26 8 -40 22 -13 27 -3 8 16 -10
10 -10 15 2 22 33 21 62 1 39 -26 -14 -17 -9 -26 10 -15 7 5 14 21 14 35 0 20
4 26 17 24 9 -2 24 3 34 11 14 12 16 12 10 -2 -4 -12 -1 -14 15 -10 15 4 20 1
16 -8 -6 -18 11 -46 22 -35 4 5 2 11 -4 13 -21 8 -15 26 7 20 10 -3 19 -2 18
2 -2 19 4 22 20 10 14 -11 15 -11 5 1 -18 20 -16 28 7 32 12 2 17 7 12 15 -4
7 -17 10 -30 6 -12 -3 -20 -9 -17 -13 8 -13 -6 -40 -21 -40 -8 0 -14 5 -14 10
0 6 7 10 15 10 8 0 15 5 15 10 0 6 -6 10 -14 10 -26 0 -30 23 -6 42 12 10 17
18 11 18 -7 0 -9 5 -6 10 4 6 12 7 18 3 7 -4 20 -6 30 -5 10 2 17 -3 17 -12 0
-9 -6 -16 -12 -17 -7 0 0 -5 15 -11 18 -6 26 -15 23 -24 -3 -8 -1 -14 4 -14 6
0 10 8 10 18 0 14 2 14 9 3 8 -12 12 -12 26 2 15 16 15 17 -8 17 -20 0 -24 4
-20 20 3 11 0 27 -7 35 -10 12 -10 15 2 15 8 0 20 -6 26 -12 10 -10 15 -10 21
1 5 7 13 11 19 7 10 -6 26 23 17 32 -3 3 -5 0 -5 -6 0 -7 -13 -12 -28 -12 -23
0 -28 4 -27 22 1 12 9 24 18 27 15 6 15 8 -5 25 -15 13 -23 15 -26 7 -14 -43
-106 -100 -100 -63 2 13 -3 16 -21 14 -13 -1 -30 3 -37 9 -11 9 -14 7 -14 -8
0 -17 -7 -20 -40 -20 -22 0 -40 2 -40 6 0 3 -17 7 -38 8 -27 1 -32 -1 -17 -7
19 -8 19 -8 -5 -18 -14 -6 -19 -11 -12 -11 6 -1 12 -5 12 -10 0 -5 -15 -8 -32
-7 -20 0 -33 -4 -34 -11 -3 -24 -4 -25 -18 -14 -8 7 -16 8 -18 4 -3 -4 -3 -2
-1 5 4 18 -24 46 -32 32 -3 -5 -12 -10 -18 -10 -7 0 -4 5 6 11 9 5 17 17 17
24 0 8 7 15 15 15 8 0 15 5 15 10 0 6 8 10 18 10 10 0 22 3 26 7 11 11 44 10
40 -1 -2 -6 11 -12 31 -13 19 -1 35 3 35 8 0 5 19 9 43 10 23 0 65 4 92 9 29
4 51 4 53 -1 7 -17 22 -9 22 11 0 11 7 20 16 20 10 0 12 4 7 13 -11 18 -10 30
7 49 11 14 16 15 22 4 4 -8 18 -11 33 -8 24 4 36 22 15 22 -5 0 -10 5 -10 10
0 15 30 12 47 -6 14 -13 14 -17 2 -25 -8 -5 -9 -9 -4 -9 6 1 21 10 34 21 21
17 22 22 10 30 -12 8 -12 10 1 18 8 5 18 7 24 4 5 -4 7 1 3 10 -4 10 -2 17 5
17 7 0 7 4 1 13 -6 6 -10 20 -10 29 0 19 10 22 145 38 46 5 88 12 94 16 5 4
35 10 66 14 32 5 104 15 162 24 194 29 390 45 390 32z m-4231 -963 c-1 -5 -1
-21 1 -38 1 -26 3 -27 9 -10 5 11 7 23 5 26 -2 4 3 9 11 13 12 4 15 -3 15 -35
0 -37 2 -40 23 -33 12 4 25 12 29 18 5 7 8 6 8 -3 0 -8 2 -12 5 -9 9 8 -6 38
-19 38 -6 0 -12 9 -12 20 0 18 7 20 71 19 50 -1 63 -3 45 -9 -23 -7 -23 -8 10
-10 19 -1 38 -2 43 -1 4 0 7 -4 7 -10 0 -8 6 -7 18 2 14 11 15 11 5 -1 -9 -10
-10 -17 -2 -27 7 -7 8 -13 4 -13 -4 0 -14 8 -21 18 -11 14 -13 14 -13 2 1 -21
17 -59 18 -41 1 14 8 13 11 -1 1 -4 5 -21 10 -38 7 -23 5 -30 -6 -30 -8 0 -14
6 -14 14 0 8 -5 18 -11 22 -8 4 -9 -1 -4 -17 7 -22 7 -22 -10 -5 -13 13 -15
20 -6 29 14 14 14 47 0 47 -6 0 -9 -9 -6 -19 3 -13 -3 -22 -22 -31 -26 -12
-26 -12 -5 -20 28 -11 37 -26 27 -44 -6 -11 -13 -12 -23 -6 -10 7 -11 10 -2
10 6 0 12 5 12 10 0 6 -7 10 -15 10 -8 0 -15 -9 -15 -20 0 -11 4 -20 10 -20 5
0 17 -12 25 -27 15 -26 16 -26 11 -5 -2 13 -2 30 1 38 6 16 33 19 33 4 0 -5 7
-10 15 -10 8 0 15 6 15 14 0 16 54 41 69 31 15 -9 14 -115 0 -115 -8 0 -9 14
-5 43 5 32 3 47 -8 56 -12 10 -13 6 -9 -29 3 -22 2 -40 -3 -39 -32 7 -60 -40
-34 -56 6 -4 8 -11 5 -16 -3 -5 1 -6 9 -3 20 8 20 14 -1 30 -10 7 -14 16 -10
20 4 5 11 4 15 -2 10 -15 61 -11 71 5 5 8 14 10 22 6 9 -6 11 -3 6 9 -4 10 -7
25 -7 35 0 9 -10 28 -22 41 -21 22 -21 23 -3 36 18 14 18 14 0 14 -17 0 -17 1
0 20 17 18 19 19 30 3 7 -9 25 -17 41 -18 15 0 29 -6 32 -14 3 -8 0 -11 -7 -7
-6 4 -11 3 -11 -3 0 -5 -2 -16 -5 -23 -4 -9 4 -19 19 -26 22 -10 29 -8 43 7
10 10 27 21 38 25 17 6 17 4 -4 -15 -17 -16 -20 -24 -12 -27 8 -3 17 2 22 9 6
10 9 11 9 2 0 -7 5 -13 11 -13 6 0 9 6 6 14 -3 7 -1 18 5 24 8 8 7 16 -3 29
-12 15 -10 15 9 -1 16 -14 19 -22 11 -27 -9 -5 -3 -15 17 -33 16 -14 32 -26
37 -26 14 0 7 15 -13 28 -11 7 -20 18 -20 25 0 8 3 8 8 1 9 -13 54 -44 65 -44
4 0 5 5 1 12 -5 8 -2 9 10 5 13 -5 17 -3 13 5 -3 8 4 13 17 13 19 0 9 -24 -94
-228 -68 -135 -122 -229 -132 -233 -10 -3 -49 -30 -88 -60 -77 -59 -86 -64
-71 -35 8 15 7 20 -6 26 -10 3 -14 3 -10 -1 4 -4 -1 -13 -11 -20 -15 -12 -15
-15 -2 -23 12 -8 5 -19 -39 -61 -39 -35 -57 -46 -63 -37 -5 8 -8 3 -9 -13 0
-23 -1 -23 -9 -5 -7 17 -9 17 -9 3 -1 -12 -6 -15 -18 -11 -15 5 -15 3 2 -13
12 -11 19 -28 17 -41 -4 -27 3 -29 24 -8 9 8 11 15 5 15 -6 0 -11 8 -11 17 0
9 3 14 6 10 4 -3 13 1 21 9 9 9 24 12 37 9 17 -5 18 -4 6 5 -13 9 -12 12 5 22
10 6 30 22 43 35 12 13 30 23 38 23 8 0 13 4 10 8 -3 5 4 15 16 23 11 8 26 20
34 27 7 6 17 12 22 12 6 0 12 7 16 15 9 24 48 35 65 18 10 -11 12 -31 8 -79
-3 -44 -1 -64 7 -65 7 0 6 -3 -2 -6 -9 -3 -10 -9 -3 -17 14 -16 17 -68 6 -85
-5 -9 -4 -12 2 -8 7 4 12 -35 16 -111 4 -64 9 -133 12 -152 7 -50 36 -231 41
-260 3 -14 9 -50 15 -80 9 -55 24 -133 34 -180 3 -14 7 -33 9 -42 1 -10 5 -21
9 -24 4 -4 7 -18 7 -30 0 -13 4 -25 9 -28 13 -8 1 -46 -14 -46 -7 0 -16 -7
-19 -16 -4 -9 -13 -14 -21 -10 -8 3 -15 1 -15 -4 0 -6 -9 -10 -20 -10 -11 0
-23 -7 -26 -15 -4 -8 -11 -15 -18 -15 -17 0 -47 -38 -36 -45 6 -4 4 -12 -4
-21 -19 -18 -30 -18 -22 1 3 8 1 15 -4 15 -6 0 -10 -6 -11 -12 0 -7 -5 0 -11
15 -8 22 -13 26 -24 16 -11 -9 -14 -7 -14 13 0 13 -6 30 -12 37 -10 11 -10 13
0 7 6 -4 12 -2 12 3 0 6 -7 11 -16 11 -12 0 -14 -7 -9 -32 l7 -33 -23 20 c-13
11 -26 22 -29 25 -3 3 -20 13 -37 23 -32 18 -33 18 -33 -2 0 -14 5 -19 14 -15
11 4 13 0 9 -18 -6 -21 -5 -22 12 -8 17 14 18 13 12 -3 -4 -10 -7 -25 -7 -33
0 -8 -4 -14 -10 -14 -5 0 -10 7 -10 16 0 8 -5 24 -11 35 -8 15 -14 18 -24 9
-9 -8 -14 -6 -19 6 -4 9 -4 19 -1 22 3 3 5 0 5 -6 0 -7 5 -12 10 -12 15 0 12
22 -7 60 -14 30 -17 32 -23 14 -7 -17 -8 -17 -11 6 -3 16 -13 27 -29 31 -14 4
-22 7 -18 8 4 1 1 13 -7 27 -7 15 -11 32 -9 39 7 18 -23 26 -37 9 -13 -16 -39
-2 -39 22 0 17 -5 17 -31 4 -15 -8 -19 -7 -19 5 0 18 -16 20 -23 3 -3 -7 -8 2
-13 21 -7 31 -8 33 -21 16 -7 -11 -13 -15 -14 -9 -1 5 -4 -2 -9 -16 -6 -21 -8
-22 -14 -8 -3 10 -9 26 -13 35 -4 13 -8 8 -13 -20 -4 -20 -10 -41 -14 -45 -4
-4 -5 11 -1 32 6 27 4 37 -3 32 -6 -4 -9 -13 -6 -20 3 -7 -1 -16 -9 -19 -18
-7 -29 37 -14 52 8 8 6 11 -5 11 -9 0 -23 -6 -31 -14 -17 -18 -55 -10 -59 12
-3 14 -5 14 -20 -1 -16 -16 -17 -16 -24 5 -7 22 -7 22 -15 3 -6 -14 -7 -10 -3
13 4 25 2 32 -10 32 -14 0 -14 3 -4 20 7 11 19 20 26 20 7 0 10 -4 7 -10 -3
-5 -2 -10 3 -10 5 0 12 8 14 18 4 15 -1 17 -34 14 -24 -3 -38 0 -38 8 0 6 4 9
9 5 30 -18 -3 123 -36 155 -9 8 -13 9 -9 3 4 -7 4 -13 -1 -13 -14 0 -31 49
-25 72 4 18 2 20 -16 16 -20 -5 -40 17 -27 30 3 3 5 0 5 -7 0 -7 6 -11 13 -8
6 2 25 -5 42 -17 l29 -20 -15 21 c-8 12 -28 32 -43 44 -23 18 -25 23 -14 38
11 14 11 14 -2 4 -10 -8 -21 -9 -30 -3 -8 6 -21 10 -29 10 -11 0 -11 -3 2 -18
14 -16 14 -18 -9 -29 -22 -10 -24 -9 -19 6 3 11 -2 24 -12 32 -16 13 -17 12
-5 -3 10 -12 10 -18 1 -23 -6 -4 -15 -1 -20 6 -7 11 -11 11 -17 1 -9 -14 -42
-6 -42 10 0 5 5 6 10 3 13 -8 13 25 0 45 -8 13 -10 12 -10 -3 0 -11 -5 -17
-12 -14 -7 2 -12 11 -10 18 2 8 -6 4 -18 -9 -28 -30 -34 -23 -22 22 12 42 9
44 -21 11 -17 -18 -29 -23 -49 -19 -28 6 -44 39 -25 51 7 5 0 10 -18 13 -26 4
-30 10 -33 43 -2 26 3 46 18 67 12 17 18 30 14 30 -4 0 1 9 11 20 10 11 15 23
12 27 -4 3 -7 1 -7 -5 0 -7 -5 -12 -11 -12 -8 0 -8 5 1 15 7 8 18 15 24 15 8
0 11 11 8 32 -4 28 -6 30 -18 14 -10 -15 -12 -11 -8 25 3 31 13 52 36 76 18
18 27 33 20 33 -7 0 -12 -4 -12 -9 0 -6 -9 -9 -19 -8 -14 1 -17 5 -10 13 17
21 20 82 4 98 -9 9 -11 17 -5 21 5 3 10 2 10 -3 0 -14 32 -24 42 -14 5 5 10
18 11 30 0 11 11 25 23 31 20 9 21 13 11 35 -13 27 -22 24 -29 -9 -4 -18 -6
-17 -16 8 -7 16 -17 25 -23 22 -6 -4 -13 3 -16 15 -4 17 -8 19 -15 8 -7 -10
-11 -10 -15 0 -7 18 -36 15 -29 -3 4 -10 -1 -15 -14 -15 -12 0 -17 5 -14 14 3
7 -2 16 -10 19 -11 5 -16 0 -16 -13 0 -31 -16 -24 -28 13 -10 29 -11 29 -8 5
5 -41 -12 -34 -20 7 -6 33 -8 34 -20 18 -18 -24 -17 -36 1 -29 8 3 15 1 15 -4
0 -5 -14 -9 -30 -7 -21 1 -35 10 -43 27 -7 13 -27 33 -46 43 -27 17 -34 18
-42 6 -12 -20 -12 -20 21 -58 34 -39 37 -51 13 -51 -10 1 -31 19 -48 41 -16
22 -36 46 -42 53 -10 11 -9 15 3 20 9 3 20 4 25 0 5 -3 9 2 9 10 0 24 44 30
80 11 l32 -17 -7 31 c-10 45 3 71 41 87 26 11 39 11 59 2 14 -6 25 -15 25 -19
0 -23 31 -37 66 -29 45 10 59 22 15 14 -29 -6 -36 -2 -76 39 -39 41 -42 47
-24 52 11 4 17 11 14 16 -4 5 1 9 9 9 10 0 13 -6 9 -16 -7 -18 33 -64 56 -64
14 0 14 1 1 10 -13 9 -13 10 0 10 10 0 11 3 3 8 -6 4 -14 23 -18 43 -6 34 -4
38 24 55 16 10 28 21 25 26 -8 12 24 10 49 -3 28 -15 37 -28 37 -56 0 -27 7
-28 34 -8 17 13 18 15 3 15 -21 0 -23 29 -2 36 27 11 16 24 -20 24 -24 0 -37
6 -45 20 -12 23 2 60 24 60 8 0 13 8 12 18 -1 15 12 17 139 19 134 2 138 1
100 -13 -22 -8 -51 -16 -65 -18 -14 -1 -41 -10 -60 -18 -19 -9 -46 -20 -59
-23 l-24 -7 23 -13 c21 -11 28 -10 48 5 32 26 79 35 98 19 12 -9 17 -10 27 0
9 10 8 11 -4 6 -10 -4 -20 -2 -23 4 -5 8 43 26 129 48 77 20 296 31 294 16z
m3008 -58 c33 14 61 14 67 -1 3 -8 15 -14 26 -14 11 0 19 -3 19 -7 -3 -20 2
-26 11 -13 7 10 12 12 18 4 4 -6 17 -16 29 -22 12 -7 24 -25 28 -42 4 -16 14
-35 23 -41 12 -7 14 -12 5 -15 -7 -3 -13 -11 -13 -17 0 -8 4 -7 12 1 17 17 31
15 24 -4 -7 -18 10 -44 27 -44 6 0 2 7 -9 15 -16 13 -17 16 -4 25 10 7 12 12
4 18 -12 8 -15 42 -3 42 4 0 11 -4 14 -10 3 -5 15 -10 26 -10 10 0 19 -4 19
-10 0 -6 -9 -6 -26 0 -20 8 -25 7 -21 -2 2 -8 23 -13 55 -13 29 1 52 -3 52 -7
0 -4 -4 -8 -10 -8 -5 0 -10 -4 -10 -10 0 -5 9 -10 21 -10 11 0 28 -7 36 -16
14 -13 14 -17 2 -26 -11 -7 -11 -11 -1 -15 20 -8 14 -20 -13 -27 -16 -4 -22
-11 -19 -21 8 -20 -1 -19 -26 2 -11 10 -20 25 -20 35 0 26 -20 22 -20 -4 -1
-20 -4 -18 -20 12 -11 19 -19 32 -20 28 0 -4 -15 0 -32 10 -21 11 -37 30 -42
50 -8 26 -14 30 -32 26 -13 -3 -31 -1 -41 6 -16 10 -16 10 4 5 13 -3 31 -2 40
4 17 10 17 11 -2 12 -11 1 -26 2 -32 2 -7 -1 -13 8 -13 19 0 10 -4 17 -10 13
-5 -3 -6 -13 -3 -22 4 -11 2 -14 -8 -11 -8 3 -13 16 -12 32 2 28 -6 33 -25 14
-14 -14 -53 17 -46 37 8 21 -17 30 -28 11 -9 -16 -11 -16 -29 3 -23 24 -25 39
-4 21 8 -7 22 -9 32 -5z m-1990 -88 c4 -12 6 -31 5 -42 l-2 -20 9 20 c4 11 6
25 4 31 -2 7 -1 14 4 17 4 3 8 -12 8 -34 0 -21 -3 -39 -7 -39 -15 0 -8 -48 7
-54 8 -3 15 -10 15 -16 0 -6 -5 -8 -11 -4 -9 5 -10 -4 -4 -32 4 -21 11 -56 15
-76 4 -21 3 -35 -1 -32 -11 7 -11 6 2 -36 14 -44 20 -230 8 -230 -5 0 -12 0
-15 1 -7 0 -32 -44 -28 -49 1 -2 13 7 26 20 l23 23 3 -25 c2 -13 -1 -26 -7
-28 -6 -2 -11 -8 -11 -13 0 -6 5 -7 10 -4 16 10 12 -5 -7 -23 -15 -15 -16 -15
-11 -1 8 22 -4 40 -21 30 -13 -8 -14 -42 -7 -146 1 -27 -1 -58 -6 -68 -6 -12
-5 -23 3 -33 6 -8 9 -29 7 -47 -5 -29 3 -134 15 -212 3 -16 8 -68 12 -114 3
-46 11 -93 16 -103 6 -10 7 -27 4 -38 -3 -10 -2 -21 3 -24 6 -3 13 -22 16 -41
4 -19 11 -35 15 -35 9 0 9 -62 0 -70 -4 -3 -2 -16 4 -30 11 -25 14 -45 16
-108 1 -20 5 -31 11 -27 6 4 5 -4 -1 -19 -11 -22 -14 -24 -24 -10 -17 24 -69
15 -73 -13 -2 -14 -8 -20 -18 -16 -8 3 -14 -1 -14 -10 0 -22 -18 -31 -35 -17
-12 10 -15 9 -15 -7 0 -30 -13 -36 -26 -12 l-12 22 -6 -21 c-5 -16 -15 -22
-37 -22 -16 0 -29 4 -29 10 0 5 -11 12 -25 16 -14 3 -25 12 -25 20 0 7 -9 18
-20 24 -11 6 -18 15 -15 20 3 4 0 10 -6 12 -5 2 -12 24 -13 50 -2 26 -11 54
-20 63 -17 18 -22 50 -6 40 6 -3 7 1 4 9 -3 9 -10 16 -15 16 -5 0 -9 5 -9 11
0 5 5 7 10 4 6 -3 10 -2 10 4 0 5 -5 11 -12 13 -7 3 -9 11 -4 24 8 19 8 19 15
0 5 -12 10 -16 14 -9 4 6 4 18 1 27 -6 15 9 21 44 17 6 -1 12 4 12 12 0 20
-50 15 -66 -7 -14 -20 -14 -20 -15 0 -1 15 -3 14 -9 -6 l-8 -25 -1 28 c-1 15
2 27 7 27 4 0 8 16 9 36 1 19 8 43 15 52 9 10 9 13 1 9 -16 -10 -63 31 -56 49
3 8 11 14 19 14 8 0 14 5 14 11 0 7 -9 9 -23 5 -15 -3 -24 -1 -25 7 -3 28 -9
53 -14 67 -19 45 -31 240 -17 260 9 12 10 11 6 -7 -3 -12 2 -31 10 -42 8 -12
10 -21 4 -21 -6 0 -11 -7 -11 -15 0 -12 3 -12 20 2 24 21 26 43 5 43 -8 0 -15
9 -15 20 0 24 4 25 25 4 14 -15 18 -15 31 -2 15 15 10 48 -8 48 -6 0 -8 -7 -5
-14 4 -10 1 -13 -9 -9 -13 5 -17 14 -12 31 2 4 7 6 11 4 4 -1 10 5 13 13 11
27 34 17 34 -16 0 -19 4 -28 11 -24 6 4 8 13 5 21 -3 7 -1 16 4 19 6 4 10 -3
10 -14 0 -10 6 -22 13 -25 10 -5 10 -7 0 -12 -7 -3 -13 -15 -13 -26 0 -14 -5
-18 -15 -14 -8 3 -15 0 -15 -6 0 -6 -8 -17 -17 -24 -17 -13 -17 -13 0 -14 9 0
17 5 17 11 0 6 8 9 17 7 14 -2 17 -11 15 -40 -2 -20 1 -39 7 -43 6 -3 11 -11
11 -16 0 -6 -7 -3 -16 6 -14 13 -19 14 -25 3 -6 -9 -1 -20 14 -33 23 -21 26
-52 4 -38 -20 12 -47 10 -58 -4 -9 -10 -8 -13 3 -13 10 0 13 -10 10 -35 -3
-21 -9 -34 -16 -32 -6 2 -10 14 -9 26 2 11 -2 21 -7 21 -6 0 -10 -11 -10 -24
0 -18 8 -27 31 -35 39 -13 42 -13 35 -2 -3 5 0 11 8 14 23 9 26 -4 6 -26 -11
-11 -17 -23 -14 -26 4 -3 9 0 11 7 5 14 33 17 33 3 0 -5 -6 -11 -12 -14 -7 -2
-10 -8 -6 -12 4 -4 15 1 25 11 13 12 14 19 5 22 -17 5 -15 22 3 22 9 0 12 6 9
15 -4 8 -1 15 5 15 16 0 10 68 -6 74 -9 4 -11 14 -7 31 3 14 1 31 -6 40 -6 8
-9 19 -5 26 4 6 1 15 -6 20 -7 4 -10 11 -6 15 3 4 13 1 22 -6 10 -8 15 -9 15
-1 0 6 -4 11 -9 11 -12 0 -20 49 -10 56 16 9 10 110 -6 124 -20 17 -19 30 2
30 12 0 14 3 6 11 -8 8 -19 2 -41 -22 -26 -29 -32 -32 -53 -22 -23 11 -23 12
9 12 47 1 39 19 -10 23 -23 2 -43 9 -46 16 -2 7 2 10 11 6 16 -6 31 22 20 38
-3 6 -2 9 3 6 5 -3 16 1 23 10 13 14 12 15 -7 10 -19 -5 -23 1 -39 53 -14 46
-23 61 -40 65 -13 4 -23 10 -23 16 0 5 5 6 10 3 6 -3 10 -1 10 4 0 6 -4 11
-10 11 -18 0 -11 20 8 21 16 1 16 2 -1 6 -9 2 -15 9 -11 14 3 5 10 6 16 3 5
-4 4 4 -2 17 -13 24 -13 24 8 5 21 -18 21 -18 27 10 10 43 38 94 57 105 10 5
15 16 12 24 -4 8 -1 15 5 15 6 0 11 -5 11 -11 0 -5 4 -8 10 -4 5 3 7 12 3 20
-3 8 0 15 7 15 7 0 10 7 6 15 -3 9 1 18 9 22 10 3 13 12 9 25 -4 14 -2 18 5
14 6 -4 14 -1 17 7 10 27 44 8 44 -24 0 -32 -16 -39 -24 -11 -3 10 -4 6 -3 -8
2 -22 6 -25 40 -24 33 0 36 -2 31 -20 -7 -21 -30 -41 -49 -41 -5 0 -16 -4 -22
-8 -9 -6 -11 -3 -7 8 4 8 11 15 18 14 25 -3 36 2 36 16 0 18 -16 20 -24 3 -3
-10 -9 -8 -19 5 -9 11 -18 14 -21 8 -4 -5 -1 -13 4 -16 8 -5 6 -13 -5 -25 -13
-14 -13 -19 -2 -28 8 -7 17 -9 20 -5 4 3 7 -3 7 -15 0 -24 -16 -30 -22 -10 -4
10 -8 9 -20 -2 -9 -9 -12 -23 -8 -35 4 -13 9 -15 14 -7 4 7 4 17 0 23 -4 8 1
9 16 4 15 -5 25 -2 31 6 7 11 12 9 25 -10 13 -18 18 -20 25 -10 5 8 9 21 9 29
0 13 -1 13 -10 0 -8 -13 -10 -12 -10 3 0 10 -8 17 -21 17 -11 0 -18 4 -15 9 7
10 25 9 43 -2 7 -5 14 3 18 23 7 31 20 39 28 18 4 -10 6 -10 6 0 1 7 -6 15
-14 18 -17 7 -21 34 -5 34 6 0 10 -4 10 -10 0 -5 6 -10 13 -10 6 1 3 8 -9 18
-19 16 -19 21 -8 52 l12 35 1 -32 c1 -18 5 -33 10 -33 6 0 12 15 14 33 4 31 4
31 5 -5 1 -24 -3 -38 -10 -38 -9 0 -9 -3 0 -12 8 -8 8 -15 2 -24 -7 -8 -6 -13
4 -17 11 -4 13 -1 9 10 -4 11 -2 14 5 9 16 -9 15 7 0 22 -9 9 -7 12 13 13 16
1 19 3 7 6 -10 2 -18 11 -18 19 0 8 4 12 10 9 5 -3 10 4 10 17 -1 43 7 105 15
118 5 8 4 11 -3 6 -6 -3 -13 -2 -16 3 -4 5 -2 12 4 16 10 6 6 97 -5 115 -3 5
1 7 9 4 8 -3 19 -16 23 -27z m631 9 c7 -4 17 -18 22 -30 8 -20 9 -20 10 -1 0
11 4 16 8 10 4 -5 24 -18 45 -28 24 -10 35 -22 31 -29 -4 -7 -3 -8 4 -4 7 4
31 -6 55 -21 65 -43 81 -53 97 -60 8 -4 17 -9 20 -12 3 -4 23 -15 45 -26 22
-11 47 -25 55 -30 8 -6 33 -17 55 -24 22 -8 42 -17 45 -20 3 -3 23 -15 45 -27
22 -11 49 -25 60 -31 11 -6 37 -19 58 -29 20 -10 35 -24 33 -30 -3 -8 3 -10
17 -7 22 5 22 5 -1 -11 -20 -16 -24 -16 -38 -2 -8 9 -13 20 -10 25 3 5 -1 12
-10 15 -8 3 -12 2 -9 -3 3 -6 -3 -14 -12 -20 -11 -6 -13 -11 -5 -11 15 0 49
-30 35 -30 -19 0 -54 33 -49 47 3 8 1 11 -5 8 -18 -12 -31 -57 -19 -69 7 -7
10 -3 10 13 0 12 4 20 10 16 10 -6 2 -36 -14 -47 -6 -4 -19 3 -29 15 -15 20
-17 20 -10 2 11 -32 33 -51 42 -36 4 6 7 -8 7 -32 -1 -31 -5 -43 -13 -40 -15
6 -17 23 -3 23 15 0 0 29 -21 41 -23 12 -24 6 -3 -16 19 -19 11 -33 -9 -17 -8
7 -18 8 -22 4 -5 -4 -5 -1 -1 6 5 9 1 15 -13 19 -25 6 -28 23 -3 23 16 1 16 1
-1 11 -10 6 -24 8 -32 5 -9 -3 -16 6 -21 27 -4 18 -9 27 -11 20 -7 -20 -33 -3
-33 22 0 15 -8 25 -22 30 -13 4 -25 9 -28 10 -3 1 -15 6 -27 10 -13 4 -20 11
-17 16 3 5 10 7 15 4 5 -4 9 -2 9 3 0 6 -11 13 -25 16 -15 4 -25 14 -25 24 0
12 -2 14 -8 4 -13 -20 -65 33 -57 58 4 11 2 20 -4 20 -6 0 -11 -4 -11 -8 0 -4
-14 -9 -31 -10 -28 -2 -30 -1 -19 13 12 14 9 20 -18 43 -18 15 -32 33 -32 40
0 6 -16 18 -36 27 -19 8 -33 19 -29 25 3 5 -3 10 -14 10 -11 0 -25 9 -31 20
-6 11 -16 19 -22 17 -7 -1 -13 6 -15 15 -4 17 12 19 35 4z m616 -28 c9 -12 16
-15 21 -9 9 16 25 13 19 -2 -3 -10 4 -14 25 -15 16 0 42 -7 58 -14 16 -9 50
-13 81 -11 29 1 52 -2 52 -7 0 -6 -8 -10 -17 -11 -11 0 -13 -3 -5 -6 6 -2 10
-9 6 -14 -6 -10 11 -11 44 -2 16 4 20 8 11 13 -7 5 -2 7 14 7 19 -2 23 -5 15
-14 -6 -7 -7 -13 -3 -13 4 0 3 -6 -3 -13 -9 -10 -4 -13 23 -13 24 0 35 5 35
15 0 8 3 11 8 7 4 -4 7 -11 7 -15 0 -4 8 -15 17 -24 21 -22 58 -22 58 -1 0 8
5 12 10 9 6 -3 10 -18 10 -32 0 -24 3 -25 35 -20 20 3 33 2 30 -3 -5 -9 41
-24 65 -21 13 2 13 1 0 -8 -12 -8 -9 -12 13 -20 16 -6 32 -11 36 -11 5 0 20
-11 35 -25 15 -14 35 -25 45 -25 10 0 24 -6 31 -14 6 -8 19 -12 27 -9 11 4 14
2 9 -5 -7 -12 5 -16 32 -13 6 1 12 -6 12 -16 0 -12 7 -19 20 -19 11 0 20 4 20
8 0 4 5 8 10 8 6 0 10 -7 10 -15 0 -8 6 -15 14 -15 7 0 19 -7 26 -15 7 -9 20
-13 28 -10 8 3 21 -3 29 -15 8 -11 21 -20 29 -20 8 0 14 -3 14 -8 0 -18 100
-54 139 -50 34 3 41 1 41 -14 0 -10 7 -18 16 -18 8 0 13 3 11 8 -3 4 6 8 19 8
13 1 24 -2 24 -7 0 -5 7 -9 15 -9 8 0 15 -4 15 -9 0 -5 16 -11 35 -13 32 -4
35 -2 35 22 0 30 8 42 35 59 19 12 19 12 -2 8 -13 -3 -23 -1 -23 5 0 6 -7 8
-15 4 -8 -3 -14 -2 -14 2 1 4 0 10 -1 15 -1 4 -3 12 -4 19 0 6 -7 13 -15 16
-9 3 -11 0 -6 -8 5 -9 4 -11 -3 -6 -19 11 -15 39 4 32 9 -3 24 -6 35 -6 17 0
18 -3 9 -20 -8 -15 -8 -20 1 -20 6 0 13 9 16 20 7 25 36 23 41 -3 3 -12 -3
-17 -19 -17 -17 0 -20 -3 -12 -11 8 -8 17 -7 32 3 23 14 24 13 89 -68 12 -16
22 -24 22 -18 0 5 -5 15 -12 22 -8 8 -8 12 -1 12 14 0 24 -26 17 -44 -10 -27
-31 -24 -64 8 -29 28 -37 31 -57 22 -32 -15 -29 -29 6 -21 20 4 34 1 45 -10
20 -21 20 -34 -1 -57 -20 -22 -53 -24 -53 -3 0 9 9 15 21 15 12 0 19 5 17 12
-5 13 -78 19 -78 7 0 -4 6 -19 14 -34 26 -51 -9 -105 -68 -105 -19 0 -27 -7
-32 -25 -3 -14 -20 -37 -37 -51 -27 -23 -29 -27 -14 -36 20 -11 23 -34 5 -40
-15 -5 -79 63 -105 110 -11 19 -23 30 -31 27 -8 -3 -18 -5 -23 -5 -5 0 -9 -5
-9 -11 0 -7 10 -9 26 -5 l26 7 -4 -60 c-5 -65 2 -74 26 -39 11 15 19 19 26 12
7 -7 4 -19 -10 -37 -17 -21 -30 -27 -61 -27 -36 0 -39 -2 -39 -28 0 -15 -9
-35 -20 -45 -11 -9 -20 -14 -20 -10 0 4 -5 2 -12 -5 -18 -18 -36 -15 -63 13
-32 31 -32 72 -1 104 l25 26 -25 24 c-18 17 -24 19 -24 8 0 -8 5 -17 12 -19 6
-2 8 -10 4 -17 -5 -8 -12 -9 -20 -2 -16 14 -8 71 10 71 17 0 19 26 2 36 -6 4
-8 3 -4 -4 3 -6 2 -13 -3 -16 -5 -4 -13 -2 -16 4 -5 8 -11 7 -21 -1 -11 -9
-18 -9 -26 -1 -9 9 -9 12 0 12 7 0 12 5 12 10 0 6 -9 10 -20 10 -14 0 -20 7
-20 21 0 16 -4 19 -17 15 -9 -4 -20 -1 -24 6 -6 9 -11 9 -22 0 -12 -10 -16 -9
-21 3 -3 9 0 15 11 15 12 0 13 3 4 13 -6 8 -7 18 -3 22 4 5 -1 5 -11 2 -10 -4
-21 -7 -23 -7 -2 0 -4 -6 -4 -14 0 -8 -5 -18 -11 -22 -7 -4 -9 0 -5 14 4 11 2
23 -4 27 -5 3 -10 15 -10 26 0 10 -4 19 -10 19 -5 0 -10 -5 -10 -11 0 -5 -4
-7 -10 -4 -5 3 -11 -2 -11 -12 -1 -17 -2 -17 -6 0 -2 9 -11 17 -19 17 -22 0
-77 57 -68 71 5 9 2 10 -10 6 -28 -11 -89 21 -118 63 -19 27 -24 41 -16 46 7
4 14 2 16 -4 2 -7 10 -12 18 -12 8 0 14 -8 14 -17 0 -15 2 -16 10 -3 9 13 11
13 20 0 8 -13 10 -12 10 3 0 9 6 17 13 17 12 0 37 -44 37 -67 0 -7 5 -13 10
-13 6 0 10 4 10 10 0 5 6 7 14 4 8 -3 12 -13 9 -25 -6 -22 15 -26 23 -4 10 24
22 17 17 -9 -4 -18 0 -25 18 -29 25 -7 41 8 36 33 -1 8 -10 14 -20 14 -9 -1
-15 2 -12 6 3 5 -8 14 -25 22 -16 7 -30 19 -30 26 0 22 -23 38 -62 46 -21 4
-44 16 -53 29 -8 12 -15 16 -15 9 0 -6 -7 -12 -15 -12 -9 0 -12 6 -8 16 4 12
1 15 -14 12 -10 -1 -31 5 -46 15 -15 10 -27 14 -27 10 0 -5 9 -14 20 -21 11
-7 20 -18 20 -26 0 -12 -23 -14 -72 -7 -5 1 -8 10 -8 21 0 21 -40 38 -59 25
-6 -3 -11 1 -11 11 0 12 -6 15 -25 12 -14 -3 -30 1 -36 9 -9 10 -9 12 3 8 8
-3 23 4 34 16 13 16 15 21 4 17 -40 -14 -64 -20 -58 -13 8 9 -30 47 -41 40 -5
-3 -22 2 -37 10 -23 12 -25 15 -11 21 29 11 19 19 -23 18 -21 0 -37 3 -34 7
10 16 -10 39 -33 39 -18 0 -24 -4 -19 -15 4 -10 -1 -15 -15 -15 -13 0 -19 5
-16 13 3 8 -4 14 -17 15 -21 1 -36 15 -66 61 -14 21 -18 22 -38 10 -17 -11
-24 -11 -34 -1 -9 9 -9 12 0 12 7 0 12 5 12 10 0 6 -10 10 -22 10 l-23 1 24
13 c18 10 20 15 10 19 -8 3 -2 6 14 6 15 1 27 7 27 14 0 21 107 9 124 -15z"/>
<path d="M4378 3287 l21 -23 -20 -12 c-23 -15 -49 -1 -49 24 0 8 -5 14 -11 14
-5 0 -8 -4 -4 -9 3 -5 1 -12 -5 -16 -5 -3 -10 -16 -10 -28 0 -18 -2 -19 -10
-7 -8 12 -10 11 -10 -7 0 -23 -103 -120 -122 -115 -5 1 -7 -2 -3 -7 6 -10 -33
-37 -47 -33 -5 1 -7 -1 -7 -6 3 -20 -2 -32 -16 -32 -8 0 -15 -4 -15 -10 0 -5
-7 -10 -15 -10 -7 0 -18 -6 -22 -13 -4 -7 -33 -32 -63 -57 -30 -25 -61 -50
-68 -57 -7 -7 -23 -19 -34 -28 -12 -8 -20 -16 -17 -19 2 -2 38 22 79 54 96 75
159 120 168 120 4 0 38 27 75 61 40 36 67 55 67 45 0 -8 -8 -20 -17 -25 -16
-9 -16 -12 -3 -21 12 -8 9 -10 -12 -10 -31 0 -72 -35 -80 -68 -4 -12 -2 -20 2
-17 5 3 11 1 14 -4 4 -5 2 -12 -4 -16 -19 -12 0 -25 21 -15 11 6 25 8 31 4 6
-4 8 -3 5 3 -4 6 0 17 9 24 9 7 20 22 24 34 7 17 9 17 9 3 1 -11 9 -18 21 -18
23 0 27 -25 5 -37 -13 -8 -13 -11 1 -28 15 -20 15 -20 11 3 -3 12 -1 22 4 22
5 0 9 8 9 18 0 13 2 14 9 3 5 -8 14 -10 21 -6 8 5 11 4 7 -2 -4 -6 0 -13 8
-17 10 -4 17 3 21 22 3 15 8 33 10 40 8 25 -7 58 -25 58 -11 0 -17 -6 -14 -13
3 -7 9 -13 14 -13 5 0 8 -18 7 -40 -1 -42 -18 -36 -18 7 0 12 -6 23 -12 26
-10 3 -10 11 0 39 19 53 16 70 -10 64 -23 -6 -23 -6 -2 5 12 6 27 22 35 35 15
29 33 32 26 3 -4 -13 2 -28 15 -41 18 -18 20 -19 15 -3 -4 9 -2 25 5 33 10 12
10 14 1 8 -8 -4 -13 -2 -13 4 0 8 10 9 30 5 37 -8 38 0 3 19 -22 12 -24 15 -8
14 39 -2 65 2 65 11 0 5 -8 11 -17 13 -21 4 -73 -13 -73 -24 0 -4 -7 -5 -15
-2 -12 5 -10 10 9 25 13 10 30 19 38 19 14 0 -41 49 -56 50 -5 0 0 -10 12 -23z"/>
</g>
</svg>
